<svg width="1416pt" height="620pt"
 viewBox="0.00 0.00 1415.88 620.00" xmlns="http://www.w3.org/2000/svg" xmlns:xlink="http://www.w3.org/1999/xlink">
<g id="graph0" class="graph" transform="scale(1 1) rotate(0) translate(4 616)">
<title>G</title>
<polygon fill="white" stroke="transparent" points="-4,4 -4,-616 1411.88,-616 1411.88,4 -4,4"/>
<!-- AMSHookapp -->
<g id="node1" class="node">
<title>AMSHookapp</title>
<polygon fill="none" stroke="black" points="842,-612 788,-612 788,-576 842,-576 842,-612"/>
<text text-anchor="middle" x="815" y="-590.85" font-family="Times New Roman" font-size="14.00">app</text>
</g>
<!-- androidxappcompatappcompat -->
<g id="node2" class="node">
<title>androidxappcompatappcompat</title>
<polygon fill="none" stroke="black" points="947.92,-540 870.08,-540 870.08,-504 947.92,-504 947.92,-540"/>
<text text-anchor="middle" x="909" y="-518.85" font-family="Times New Roman" font-size="14.00">appcompat</text>
</g>
<!-- AMSHookapp&#45;&gt;androidxappcompatappcompat -->
<g id="edge1" class="edge">
<title>AMSHookapp&#45;&gt;androidxappcompatappcompat</title>
<path fill="none" stroke="black" d="M838.24,-575.7C850.19,-566.8 864.92,-555.82 877.85,-546.2"/>
<polygon fill="black" stroke="black" points="880.1,-548.88 886.03,-540.1 875.92,-543.27 880.1,-548.88"/>
</g>
<!-- androidxfragmentfragment -->
<g id="node3" class="node">
<title>androidxfragmentfragment</title>
<polygon fill="none" stroke="black" points="537.03,-468 470.97,-468 470.97,-432 537.03,-432 537.03,-468"/>
<text text-anchor="middle" x="504" y="-446.85" font-family="Times New Roman" font-size="14.00">fragment</text>
</g>
<!-- androidxappcompatappcompat&#45;&gt;androidxfragmentfragment -->
<g id="edge2" class="edge">
<title>androidxappcompatappcompat&#45;&gt;androidxfragmentfragment</title>
<path fill="none" stroke="black" d="M870.17,-514.29C794.28,-501.17 626.8,-472.23 547.4,-458.5"/>
<polygon fill="black" stroke="black" points="547.7,-455 537.25,-456.75 546.51,-461.9 547.7,-455"/>
</g>
<!-- androidxcorecore -->
<g id="node6" class="node">
<title>androidxcorecore</title>
<polygon fill="none" stroke="black" points="689,-252 635,-252 635,-216 689,-216 689,-252"/>
<text text-anchor="middle" x="662" y="-230.85" font-family="Times New Roman" font-size="14.00">core</text>
</g>
<!-- androidxappcompatappcompat&#45;&gt;androidxcorecore -->
<g id="edge5" class="edge">
<title>androidxappcompatappcompat&#45;&gt;androidxcorecore</title>
<path fill="none" stroke="black" d="M881.43,-503.98C834.61,-473.64 739.61,-405.69 688,-324 676.09,-305.14 669.45,-280.62 665.87,-262.1"/>
<polygon fill="black" stroke="black" points="669.32,-261.48 664.14,-252.23 662.42,-262.68 669.32,-261.48"/>
</g>
<!-- androidxannotationannotation -->
<g id="node9" class="node">
<title>androidxannotationannotation</title>
<polygon fill="none" stroke="black" points="677.6,-36 602.4,-36 602.4,0 677.6,0 677.6,-36"/>
<text text-anchor="middle" x="640" y="-14.85" font-family="Times New Roman" font-size="14.00">annotation</text>
</g>
<!-- androidxappcompatappcompat&#45;&gt;androidxannotationannotation -->
<g id="edge7" class="edge">
<title>androidxappcompatappcompat&#45;&gt;androidxannotationannotation</title>
<path fill="none" stroke="black" d="M947.91,-520.02C1029.08,-515.7 1209,-493.24 1209,-379 1209,-379 1209,-379 1209,-161 1209,-106.91 1174.36,-96.23 1126,-72 1049.9,-33.87 794.72,-22.96 687.78,-20.02"/>
<polygon fill="black" stroke="black" points="687.69,-16.51 677.61,-19.75 687.51,-23.51 687.69,-16.51"/>
</g>
<!-- androidxappcompatappcompatresources -->
<g id="node20" class="node">
<title>androidxappcompatappcompatresources</title>
<polygon fill="none" stroke="black" points="1024.45,-468 889.55,-468 889.55,-432 1024.45,-432 1024.45,-468"/>
<text text-anchor="middle" x="957" y="-446.85" font-family="Times New Roman" font-size="14.00">appcompat&#45;resources</text>
</g>
<!-- androidxappcompatappcompat&#45;&gt;androidxappcompatappcompatresources -->
<g id="edge3" class="edge">
<title>androidxappcompatappcompat&#45;&gt;androidxappcompatappcompatresources</title>
<path fill="none" stroke="black" d="M920.87,-503.7C926.5,-495.47 933.35,-485.48 939.57,-476.42"/>
<polygon fill="black" stroke="black" points="942.5,-478.33 945.27,-468.1 936.73,-474.37 942.5,-478.33"/>
</g>
<!-- androidxdrawerlayoutdrawerlayout -->
<g id="node24" class="node">
<title>androidxdrawerlayoutdrawerlayout</title>
<polygon fill="none" stroke="black" points="877.86,-396 788.14,-396 788.14,-360 877.86,-360 877.86,-396"/>
<text text-anchor="middle" x="833" y="-374.85" font-family="Times New Roman" font-size="14.00">drawerlayout</text>
</g>
<!-- androidxappcompatappcompat&#45;&gt;androidxdrawerlayoutdrawerlayout -->
<g id="edge4" class="edge">
<title>androidxappcompatappcompat&#45;&gt;androidxdrawerlayoutdrawerlayout</title>
<path fill="none" stroke="black" d="M899.83,-503.87C886.71,-479.35 862.45,-434.03 847.05,-405.26"/>
<polygon fill="black" stroke="black" points="850,-403.35 842.2,-396.19 843.83,-406.66 850,-403.35"/>
</g>
<!-- androidxcursoradaptercursoradapter -->
<g id="node25" class="node">
<title>androidxcursoradaptercursoradapter</title>
<polygon fill="none" stroke="black" points="1329.18,-468 1236.82,-468 1236.82,-432 1329.18,-432 1329.18,-468"/>
<text text-anchor="middle" x="1283" y="-446.85" font-family="Times New Roman" font-size="14.00">cursoradapter</text>
</g>
<!-- androidxappcompatappcompat&#45;&gt;androidxcursoradaptercursoradapter -->
<g id="edge6" class="edge">
<title>androidxappcompatappcompat&#45;&gt;androidxcursoradaptercursoradapter</title>
<path fill="none" stroke="black" d="M947.94,-515.82C1007.55,-507.58 1124.84,-490.12 1223,-468 1224.25,-467.72 1225.51,-467.43 1226.78,-467.13"/>
<polygon fill="black" stroke="black" points="1227.75,-470.49 1236.61,-464.68 1226.07,-463.7 1227.75,-470.49"/>
</g>
<!-- androidxviewpagerviewpager -->
<g id="node4" class="node">
<title>androidxviewpagerviewpager</title>
<polygon fill="none" stroke="black" points="658.3,-396 583.7,-396 583.7,-360 658.3,-360 658.3,-396"/>
<text text-anchor="middle" x="621" y="-374.85" font-family="Times New Roman" font-size="14.00">viewpager</text>
</g>
<!-- androidxfragmentfragment&#45;&gt;androidxviewpagerviewpager -->
<g id="edge8" class="edge">
<title>androidxfragmentfragment&#45;&gt;androidxviewpagerviewpager</title>
<path fill="none" stroke="black" d="M532.62,-431.88C547.92,-422.72 566.94,-411.34 583.42,-401.48"/>
<polygon fill="black" stroke="black" points="585.48,-404.33 592.27,-396.19 581.89,-398.32 585.48,-404.33"/>
</g>
<!-- androidxfragmentfragment&#45;&gt;androidxcorecore -->
<g id="edge11" class="edge">
<title>androidxfragmentfragment&#45;&gt;androidxcorecore</title>
<path fill="none" stroke="black" d="M516.66,-431.85C544.4,-394.28 610.63,-304.58 643.23,-260.43"/>
<polygon fill="black" stroke="black" points="646.15,-262.36 649.28,-252.23 640.52,-258.2 646.15,-262.36"/>
</g>
<!-- androidxfragmentfragment&#45;&gt;androidxannotationannotation -->
<g id="edge14" class="edge">
<title>androidxfragmentfragment&#45;&gt;androidxannotationannotation</title>
<path fill="none" stroke="black" d="M470.93,-446.87C358.8,-438.77 0,-405.18 0,-307 0,-307 0,-307 0,-161 0,-114.03 16.85,-96.39 57,-72 102.3,-44.48 460.87,-26.62 592.1,-20.95"/>
<polygon fill="black" stroke="black" points="592.41,-24.44 602.25,-20.51 592.11,-17.44 592.41,-24.44"/>
</g>
<!-- androidxcollectioncollection -->
<g id="node12" class="node">
<title>androidxcollectioncollection</title>
<polygon fill="none" stroke="black" points="980.7,-108 909.3,-108 909.3,-72 980.7,-72 980.7,-108"/>
<text text-anchor="middle" x="945" y="-86.85" font-family="Times New Roman" font-size="14.00">collection</text>
</g>
<!-- androidxfragmentfragment&#45;&gt;androidxcollectioncollection -->
<g id="edge12" class="edge">
<title>androidxfragmentfragment&#45;&gt;androidxcollectioncollection</title>
<path fill="none" stroke="black" d="M537.45,-444.44C601.09,-434.12 740.63,-403.38 824,-324 886.45,-264.53 922.68,-165.71 937.34,-118.17"/>
<polygon fill="black" stroke="black" points="940.78,-118.89 940.3,-108.31 934.07,-116.88 940.78,-118.89"/>
</g>
<!-- androidxloaderloader -->
<g id="node13" class="node">
<title>androidxloaderloader</title>
<polygon fill="none" stroke="black" points="371,-396 317,-396 317,-360 371,-360 371,-396"/>
<text text-anchor="middle" x="344" y="-374.85" font-family="Times New Roman" font-size="14.00">loader</text>
</g>
<!-- androidxfragmentfragment&#45;&gt;androidxloaderloader -->
<g id="edge9" class="edge">
<title>androidxfragmentfragment&#45;&gt;androidxloaderloader</title>
<path fill="none" stroke="black" d="M470.85,-434.5C444.4,-422.93 407.41,-406.74 380.19,-394.83"/>
<polygon fill="black" stroke="black" points="381.57,-391.62 371.01,-390.82 378.77,-398.03 381.57,-391.62"/>
</g>
<!-- androidxlifecyclelifecycleviewmodel -->
<g id="node14" class="node">
<title>androidxlifecyclelifecycleviewmodel</title>
<polygon fill="none" stroke="black" points="432.56,-252 301.44,-252 301.44,-216 432.56,-216 432.56,-252"/>
<text text-anchor="middle" x="367" y="-230.85" font-family="Times New Roman" font-size="14.00">lifecycle&#45;viewmodel</text>
</g>
<!-- androidxfragmentfragment&#45;&gt;androidxlifecyclelifecycleviewmodel -->
<g id="edge13" class="edge">
<title>androidxfragmentfragment&#45;&gt;androidxlifecyclelifecycleviewmodel</title>
<path fill="none" stroke="black" d="M491.58,-431.91C474.43,-408.11 442.83,-363.47 418,-324 405.04,-303.4 391.38,-279.42 381.46,-261.55"/>
<polygon fill="black" stroke="black" points="384.26,-259.38 376.37,-252.31 378.13,-262.76 384.26,-259.38"/>
</g>
<!-- androidxactivityactivity -->
<g id="node18" class="node">
<title>androidxactivityactivity</title>
<polygon fill="none" stroke="black" points="484.99,-324 427.01,-324 427.01,-288 484.99,-288 484.99,-324"/>
<text text-anchor="middle" x="456" y="-302.85" font-family="Times New Roman" font-size="14.00">activity</text>
</g>
<!-- androidxfragmentfragment&#45;&gt;androidxactivityactivity -->
<g id="edge10" class="edge">
<title>androidxfragmentfragment&#45;&gt;androidxactivityactivity</title>
<path fill="none" stroke="black" d="M498.21,-431.87C489.99,-407.56 474.87,-362.82 465.13,-334.01"/>
<polygon fill="black" stroke="black" points="468.33,-332.54 461.81,-324.19 461.7,-334.78 468.33,-332.54"/>
</g>
<!-- androidxcustomviewcustomview -->
<g id="node5" class="node">
<title>androidxcustomviewcustomview</title>
<polygon fill="none" stroke="black" points="814.66,-324 731.34,-324 731.34,-288 814.66,-288 814.66,-324"/>
<text text-anchor="middle" x="773" y="-302.85" font-family="Times New Roman" font-size="14.00">customview</text>
</g>
<!-- androidxviewpagerviewpager&#45;&gt;androidxcustomviewcustomview -->
<g id="edge15" class="edge">
<title>androidxviewpagerviewpager&#45;&gt;androidxcustomviewcustomview</title>
<path fill="none" stroke="black" d="M658.18,-359.88C678.87,-350.35 704.8,-338.41 726.78,-328.28"/>
<polygon fill="black" stroke="black" points="728.32,-331.43 735.94,-324.07 725.39,-325.07 728.32,-331.43"/>
</g>
<!-- androidxviewpagerviewpager&#45;&gt;androidxcorecore -->
<g id="edge16" class="edge">
<title>androidxviewpagerviewpager&#45;&gt;androidxcorecore</title>
<path fill="none" stroke="black" d="M625.95,-359.87C632.96,-335.56 645.88,-290.82 654.2,-262.01"/>
<polygon fill="black" stroke="black" points="657.63,-262.77 657.04,-252.19 650.9,-260.83 657.63,-262.77"/>
</g>
<!-- androidxviewpagerviewpager&#45;&gt;androidxannotationannotation -->
<g id="edge17" class="edge">
<title>androidxviewpagerviewpager&#45;&gt;androidxannotationannotation</title>
<path fill="none" stroke="black" d="M621.31,-359.6C621.9,-330.06 623.33,-268.23 626,-216 629.09,-155.38 634.6,-84.4 637.71,-46.37"/>
<polygon fill="black" stroke="black" points="641.22,-46.37 638.55,-36.11 634.24,-45.79 641.22,-46.37"/>
</g>
<!-- androidxcustomviewcustomview&#45;&gt;androidxcorecore -->
<g id="edge18" class="edge">
<title>androidxcustomviewcustomview&#45;&gt;androidxcorecore</title>
<path fill="none" stroke="black" d="M745.85,-287.88C731.47,-278.81 713.62,-267.55 698.09,-257.76"/>
<polygon fill="black" stroke="black" points="699.58,-254.56 689.26,-252.19 695.85,-260.48 699.58,-254.56"/>
</g>
<!-- androidxcustomviewcustomview&#45;&gt;androidxannotationannotation -->
<g id="edge19" class="edge">
<title>androidxcustomviewcustomview&#45;&gt;androidxannotationannotation</title>
<path fill="none" stroke="black" d="M786.98,-287.75C809.78,-257.39 849.93,-192.97 824,-144 795.29,-89.79 731.37,-54.73 686.98,-35.92"/>
<polygon fill="black" stroke="black" points="688.13,-32.61 677.55,-32.04 685.47,-39.08 688.13,-32.61"/>
</g>
<!-- androidxlifecyclelifecycleruntime -->
<g id="node7" class="node">
<title>androidxlifecyclelifecycleruntime</title>
<polygon fill="none" stroke="black" points="593.39,-180 480.61,-180 480.61,-144 593.39,-144 593.39,-180"/>
<text text-anchor="middle" x="537" y="-158.85" font-family="Times New Roman" font-size="14.00">lifecycle&#45;runtime</text>
</g>
<!-- androidxcorecore&#45;&gt;androidxlifecyclelifecycleruntime -->
<g id="edge20" class="edge">
<title>androidxcorecore&#45;&gt;androidxlifecyclelifecycleruntime</title>
<path fill="none" stroke="black" d="M634.88,-217.81C617.77,-208.23 595.39,-195.7 576.34,-185.03"/>
<polygon fill="black" stroke="black" points="578.02,-181.96 567.58,-180.13 574.6,-188.07 578.02,-181.96"/>
</g>
<!-- androidxcorecore&#45;&gt;androidxannotationannotation -->
<g id="edge22" class="edge">
<title>androidxcorecore&#45;&gt;androidxannotationannotation</title>
<path fill="none" stroke="black" d="M660.24,-215.85C656.43,-178.83 647.42,-91.18 642.82,-46.39"/>
<polygon fill="black" stroke="black" points="646.28,-45.82 641.77,-36.23 639.31,-46.54 646.28,-45.82"/>
</g>
<!-- androidxversionedparcelableversionedparcelable -->
<g id="node11" class="node">
<title>androidxversionedparcelableversionedparcelable</title>
<polygon fill="none" stroke="black" points="814.94,-180 687.06,-180 687.06,-144 814.94,-144 814.94,-180"/>
<text text-anchor="middle" x="751" y="-158.85" font-family="Times New Roman" font-size="14.00">versionedparcelable</text>
</g>
<!-- androidxcorecore&#45;&gt;androidxversionedparcelableversionedparcelable -->
<g id="edge21" class="edge">
<title>androidxcorecore&#45;&gt;androidxversionedparcelableversionedparcelable</title>
<path fill="none" stroke="black" d="M684,-215.7C695.21,-206.88 709,-196.03 721.15,-186.47"/>
<polygon fill="black" stroke="black" points="723.56,-189.04 729.25,-180.1 719.23,-183.54 723.56,-189.04"/>
</g>
<!-- androidxlifecyclelifecyclecommon -->
<g id="node8" class="node">
<title>androidxlifecyclelifecyclecommon</title>
<polygon fill="none" stroke="black" points="539.84,-108 422.16,-108 422.16,-72 539.84,-72 539.84,-108"/>
<text text-anchor="middle" x="481" y="-86.85" font-family="Times New Roman" font-size="14.00">lifecycle&#45;common</text>
</g>
<!-- androidxlifecyclelifecycleruntime&#45;&gt;androidxlifecyclelifecyclecommon -->
<g id="edge23" class="edge">
<title>androidxlifecyclelifecycleruntime&#45;&gt;androidxlifecyclelifecyclecommon</title>
<path fill="none" stroke="black" d="M523.16,-143.7C516.51,-135.39 508.42,-125.28 501.11,-116.14"/>
<polygon fill="black" stroke="black" points="503.66,-113.73 494.68,-108.1 498.2,-118.1 503.66,-113.73"/>
</g>
<!-- androidxlifecyclelifecycleruntime&#45;&gt;androidxannotationannotation -->
<g id="edge25" class="edge">
<title>androidxlifecyclelifecycleruntime&#45;&gt;androidxannotationannotation</title>
<path fill="none" stroke="black" d="M549.42,-143.87C567.37,-119.14 600.66,-73.24 621.49,-44.51"/>
<polygon fill="black" stroke="black" points="624.49,-46.34 627.53,-36.19 618.83,-42.23 624.49,-46.34"/>
</g>
<!-- androidxarchcorecorecommon -->
<g id="node10" class="node">
<title>androidxarchcorecorecommon</title>
<polygon fill="none" stroke="black" points="256.75,-108 163.25,-108 163.25,-72 256.75,-72 256.75,-108"/>
<text text-anchor="middle" x="210" y="-86.85" font-family="Times New Roman" font-size="14.00">core&#45;common</text>
</g>
<!-- androidxlifecyclelifecycleruntime&#45;&gt;androidxarchcorecorecommon -->
<g id="edge24" class="edge">
<title>androidxlifecyclelifecycleruntime&#45;&gt;androidxarchcorecorecommon</title>
<path fill="none" stroke="black" d="M480.79,-148.97C420.97,-136.16 326.86,-116.02 266.82,-103.16"/>
<polygon fill="black" stroke="black" points="267.27,-99.68 256.76,-101.01 265.8,-106.52 267.27,-99.68"/>
</g>
<!-- androidxlifecyclelifecyclecommon&#45;&gt;androidxannotationannotation -->
<g id="edge26" class="edge">
<title>androidxlifecyclelifecyclecommon&#45;&gt;androidxannotationannotation</title>
<path fill="none" stroke="black" d="M519.9,-71.88C541.96,-62.16 569.72,-49.94 592.99,-39.7"/>
<polygon fill="black" stroke="black" points="594.59,-42.82 602.33,-35.59 591.77,-36.41 594.59,-42.82"/>
</g>
<!-- androidxarchcorecorecommon&#45;&gt;androidxannotationannotation -->
<g id="edge27" class="edge">
<title>androidxarchcorecorecommon&#45;&gt;androidxannotationannotation</title>
<path fill="none" stroke="black" d="M256.81,-75.3C261.58,-74.1 266.37,-72.97 271,-72 385.01,-48.03 521.13,-31.56 591.9,-23.9"/>
<polygon fill="black" stroke="black" points="592.7,-27.34 602.27,-22.79 591.95,-20.38 592.7,-27.34"/>
</g>
<!-- androidxversionedparcelableversionedparcelable&#45;&gt;androidxannotationannotation -->
<g id="edge29" class="edge">
<title>androidxversionedparcelableversionedparcelable&#45;&gt;androidxannotationannotation</title>
<path fill="none" stroke="black" d="M737.61,-143.87C718.19,-119.03 682.09,-72.85 659.65,-44.14"/>
<polygon fill="black" stroke="black" points="662.35,-41.91 653.44,-36.19 656.84,-46.22 662.35,-41.91"/>
</g>
<!-- androidxversionedparcelableversionedparcelable&#45;&gt;androidxcollectioncollection -->
<g id="edge28" class="edge">
<title>androidxversionedparcelableversionedparcelable&#45;&gt;androidxcollectioncollection</title>
<path fill="none" stroke="black" d="M798.46,-143.88C829.33,-132.74 869.35,-118.29 899.77,-107.32"/>
<polygon fill="black" stroke="black" points="901.07,-110.57 909.29,-103.89 898.69,-103.99 901.07,-110.57"/>
</g>
<!-- androidxcollectioncollection&#45;&gt;androidxannotationannotation -->
<g id="edge30" class="edge">
<title>androidxcollectioncollection&#45;&gt;androidxannotationannotation</title>
<path fill="none" stroke="black" d="M909.39,-76.3C904.58,-74.76 899.69,-73.28 895,-72 823.64,-52.53 739.35,-36.3 687.79,-27.12"/>
<polygon fill="black" stroke="black" points="688.39,-23.67 677.93,-25.38 687.17,-30.57 688.39,-23.67"/>
</g>
<!-- androidxloaderloader&#45;&gt;androidxcorecore -->
<g id="edge31" class="edge">
<title>androidxloaderloader&#45;&gt;androidxcorecore</title>
<path fill="none" stroke="black" d="M371.26,-370.52C402.31,-362.44 453.93,-346.85 494,-324 515.65,-311.65 515.74,-301.01 537,-288 564.87,-270.95 599.2,-256.83 624.83,-247.46"/>
<polygon fill="black" stroke="black" points="626.3,-250.65 634.54,-243.98 623.95,-244.06 626.3,-250.65"/>
</g>
<!-- androidxloaderloader&#45;&gt;androidxannotationannotation -->
<g id="edge34" class="edge">
<title>androidxloaderloader&#45;&gt;androidxannotationannotation</title>
<path fill="none" stroke="black" d="M316.84,-376.78C241.95,-374.59 38,-357.4 38,-235 38,-235 38,-235 38,-161 38,-106.3 73.87,-96.05 123,-72 204.94,-31.88 480.04,-22.07 592,-19.72"/>
<polygon fill="black" stroke="black" points="592.38,-23.22 602.31,-19.52 592.24,-16.22 592.38,-23.22"/>
</g>
<!-- androidxloaderloader&#45;&gt;androidxlifecyclelifecycleviewmodel -->
<g id="edge32" class="edge">
<title>androidxloaderloader&#45;&gt;androidxlifecyclelifecycleviewmodel</title>
<path fill="none" stroke="black" d="M346.77,-359.87C350.69,-335.67 357.9,-291.21 362.56,-262.39"/>
<polygon fill="black" stroke="black" points="366.07,-262.62 364.22,-252.19 359.16,-261.5 366.07,-262.62"/>
</g>
<!-- androidxlifecyclelifecyclelivedata -->
<g id="node15" class="node">
<title>androidxlifecyclelifecyclelivedata</title>
<polygon fill="none" stroke="black" points="224.66,-324 111.34,-324 111.34,-288 224.66,-288 224.66,-324"/>
<text text-anchor="middle" x="168" y="-302.85" font-family="Times New Roman" font-size="14.00">lifecycle&#45;livedata</text>
</g>
<!-- androidxloaderloader&#45;&gt;androidxlifecyclelifecyclelivedata -->
<g id="edge33" class="edge">
<title>androidxloaderloader&#45;&gt;androidxlifecyclelifecyclelivedata</title>
<path fill="none" stroke="black" d="M316.89,-366.22C291.28,-356.03 252.19,-340.48 220.49,-327.88"/>
<polygon fill="black" stroke="black" points="221.49,-324.51 210.91,-324.07 218.91,-331.01 221.49,-324.51"/>
</g>
<!-- androidxlifecyclelifecycleviewmodel&#45;&gt;androidxannotationannotation -->
<g id="edge35" class="edge">
<title>androidxlifecyclelifecycleviewmodel&#45;&gt;androidxannotationannotation</title>
<path fill="none" stroke="black" d="M339.66,-215.77C327.89,-206.72 315.38,-194.48 309,-180 289.64,-136.08 277.86,-108.53 309,-72 344.8,-30.01 509.2,-21.15 592.02,-19.37"/>
<polygon fill="black" stroke="black" points="592.25,-22.87 602.19,-19.18 592.12,-15.87 592.25,-22.87"/>
</g>
<!-- androidxlifecyclelifecyclelivedata&#45;&gt;androidxarchcorecorecommon -->
<g id="edge38" class="edge">
<title>androidxlifecyclelifecyclelivedata&#45;&gt;androidxarchcorecorecommon</title>
<path fill="none" stroke="black" d="M152.82,-287.7C145.27,-277.94 136.93,-265.1 133,-252 128.4,-236.68 127.55,-231.04 133,-216 140.09,-196.42 151.41,-197.3 163,-180 176.38,-160.04 188.95,-135.83 197.71,-117.71"/>
<polygon fill="black" stroke="black" points="201.04,-118.87 202.18,-108.33 194.72,-115.86 201.04,-118.87"/>
</g>
<!-- androidxlifecyclelifecyclelivedatacore -->
<g id="node16" class="node">
<title>androidxlifecyclelifecyclelivedatacore</title>
<polygon fill="none" stroke="black" points="283.91,-252 142.09,-252 142.09,-216 283.91,-216 283.91,-252"/>
<text text-anchor="middle" x="213" y="-230.85" font-family="Times New Roman" font-size="14.00">lifecycle&#45;livedata&#45;core</text>
</g>
<!-- androidxlifecyclelifecyclelivedata&#45;&gt;androidxlifecyclelifecyclelivedatacore -->
<g id="edge36" class="edge">
<title>androidxlifecyclelifecyclelivedata&#45;&gt;androidxlifecyclelifecyclelivedatacore</title>
<path fill="none" stroke="black" d="M179.12,-287.7C184.36,-279.56 190.7,-269.69 196.48,-260.7"/>
<polygon fill="black" stroke="black" points="199.54,-262.41 202,-252.1 193.65,-258.62 199.54,-262.41"/>
</g>
<!-- androidxarchcorecoreruntime -->
<g id="node17" class="node">
<title>androidxarchcorecoreruntime</title>
<polygon fill="none" stroke="black" points="154.3,-180 65.7,-180 65.7,-144 154.3,-144 154.3,-180"/>
<text text-anchor="middle" x="110" y="-158.85" font-family="Times New Roman" font-size="14.00">core&#45;runtime</text>
</g>
<!-- androidxlifecyclelifecyclelivedata&#45;&gt;androidxarchcorecoreruntime -->
<g id="edge37" class="edge">
<title>androidxlifecyclelifecyclelivedata&#45;&gt;androidxarchcorecoreruntime</title>
<path fill="none" stroke="black" d="M134.64,-287.86C121.29,-279.09 107.36,-267.06 100,-252 90.5,-232.55 94.29,-207.93 99.72,-189.52"/>
<polygon fill="black" stroke="black" points="103.06,-190.6 102.84,-180 96.4,-188.42 103.06,-190.6"/>
</g>
<!-- androidxlifecyclelifecyclelivedatacore&#45;&gt;androidxlifecyclelifecyclecommon -->
<g id="edge39" class="edge">
<title>androidxlifecyclelifecyclelivedatacore&#45;&gt;androidxlifecyclelifecyclecommon</title>
<path fill="none" stroke="black" d="M284.14,-217.42C346.41,-203.55 427.89,-184.74 434,-180 454.07,-164.42 466.51,-137.82 473.5,-117.75"/>
<polygon fill="black" stroke="black" points="476.84,-118.81 476.6,-108.22 470.18,-116.65 476.84,-118.81"/>
</g>
<!-- androidxlifecyclelifecyclelivedatacore&#45;&gt;androidxarchcorecorecommon -->
<g id="edge41" class="edge">
<title>androidxlifecyclelifecyclelivedatacore&#45;&gt;androidxarchcorecorecommon</title>
<path fill="none" stroke="black" d="M212.64,-215.87C212.13,-191.67 211.19,-147.21 210.58,-118.39"/>
<polygon fill="black" stroke="black" points="214.07,-118.11 210.36,-108.19 207.08,-118.26 214.07,-118.11"/>
</g>
<!-- androidxlifecyclelifecyclelivedatacore&#45;&gt;androidxarchcorecoreruntime -->
<g id="edge40" class="edge">
<title>androidxlifecyclelifecyclelivedatacore&#45;&gt;androidxarchcorecoreruntime</title>
<path fill="none" stroke="black" d="M187.8,-215.88C174.59,-206.89 158.21,-195.76 143.89,-186.03"/>
<polygon fill="black" stroke="black" points="145.53,-182.92 135.29,-180.19 141.6,-188.71 145.53,-182.92"/>
</g>
<!-- androidxarchcorecoreruntime&#45;&gt;androidxannotationannotation -->
<g id="edge43" class="edge">
<title>androidxarchcorecoreruntime&#45;&gt;androidxannotationannotation</title>
<path fill="none" stroke="black" d="M113.34,-143.67C118.33,-122.93 129.84,-88.89 154,-72 223.93,-23.11 483.79,-18.32 592.11,-18.52"/>
<polygon fill="black" stroke="black" points="592.4,-22.02 602.42,-18.55 592.43,-15.02 592.4,-22.02"/>
</g>
<!-- androidxarchcorecoreruntime&#45;&gt;androidxarchcorecorecommon -->
<g id="edge42" class="edge">
<title>androidxarchcorecoreruntime&#45;&gt;androidxarchcorecorecommon</title>
<path fill="none" stroke="black" d="M134.46,-143.88C147.3,-134.89 163.2,-123.76 177.09,-114.03"/>
<polygon fill="black" stroke="black" points="179.26,-116.79 185.44,-108.19 175.24,-111.06 179.26,-116.79"/>
</g>
<!-- androidxactivityactivity&#45;&gt;androidxcorecore -->
<g id="edge44" class="edge">
<title>androidxactivityactivity&#45;&gt;androidxcorecore</title>
<path fill="none" stroke="black" d="M485.05,-293.23C489.7,-291.43 494.47,-289.63 499,-288 541.88,-272.57 591.8,-256.63 624.98,-246.32"/>
<polygon fill="black" stroke="black" points="626.2,-249.6 634.71,-243.3 624.13,-242.92 626.2,-249.6"/>
</g>
<!-- androidxactivityactivity&#45;&gt;androidxlifecyclelifecycleruntime -->
<g id="edge45" class="edge">
<title>androidxactivityactivity&#45;&gt;androidxlifecyclelifecycleruntime</title>
<path fill="none" stroke="black" d="M468.58,-287.7C475.77,-277.52 484.77,-264.27 492,-252 504.09,-231.48 516.17,-207.32 524.77,-189.36"/>
<polygon fill="black" stroke="black" points="528.05,-190.61 529.17,-180.08 521.73,-187.62 528.05,-190.61"/>
</g>
<!-- androidxactivityactivity&#45;&gt;androidxannotationannotation -->
<g id="edge48" class="edge">
<title>androidxactivityactivity&#45;&gt;androidxannotationannotation</title>
<path fill="none" stroke="black" d="M458.11,-287.86C459.54,-268.26 458.74,-236.26 442,-216 411.91,-179.59 369.16,-218.65 342,-180 332.8,-166.91 337.36,-159.31 342,-144 353.14,-107.19 358.17,-93.58 390,-72 451.11,-30.57 538.4,-20.6 592.02,-18.71"/>
<polygon fill="black" stroke="black" points="592.38,-22.2 602.28,-18.43 592.19,-15.2 592.38,-22.2"/>
</g>
<!-- androidxactivityactivity&#45;&gt;androidxlifecyclelifecycleviewmodel -->
<g id="edge46" class="edge">
<title>androidxactivityactivity&#45;&gt;androidxlifecyclelifecycleviewmodel</title>
<path fill="none" stroke="black" d="M434,-287.7C422.79,-278.88 409,-268.03 396.85,-258.47"/>
<polygon fill="black" stroke="black" points="398.77,-255.54 388.75,-252.1 394.44,-261.04 398.77,-255.54"/>
</g>
<!-- androidxsavedstatesavedstate -->
<g id="node19" class="node">
<title>androidxsavedstatesavedstate</title>
<polygon fill="none" stroke="black" points="424.53,-180 351.47,-180 351.47,-144 424.53,-144 424.53,-180"/>
<text text-anchor="middle" x="388" y="-158.85" font-family="Times New Roman" font-size="14.00">savedstate</text>
</g>
<!-- androidxactivityactivity&#45;&gt;androidxsavedstatesavedstate -->
<g id="edge47" class="edge">
<title>androidxactivityactivity&#45;&gt;androidxsavedstatesavedstate</title>
<path fill="none" stroke="black" d="M466.34,-287.87C476.18,-269.13 487.77,-238.73 475,-216 466.02,-200.02 450.05,-188.29 434.22,-179.99"/>
<polygon fill="black" stroke="black" points="435.5,-176.72 424.97,-175.49 432.43,-183.01 435.5,-176.72"/>
</g>
<!-- androidxsavedstatesavedstate&#45;&gt;androidxlifecyclelifecyclecommon -->
<g id="edge49" class="edge">
<title>androidxsavedstatesavedstate&#45;&gt;androidxlifecyclelifecyclecommon</title>
<path fill="none" stroke="black" d="M410.99,-143.7C422.81,-134.8 437.39,-123.82 450.18,-114.2"/>
<polygon fill="black" stroke="black" points="452.39,-116.91 458.28,-108.1 448.18,-111.32 452.39,-116.91"/>
</g>
<!-- androidxsavedstatesavedstate&#45;&gt;androidxannotationannotation -->
<g id="edge51" class="edge">
<title>androidxsavedstatesavedstate&#45;&gt;androidxannotationannotation</title>
<path fill="none" stroke="black" d="M387.91,-143.65C388.78,-123.53 393.4,-90.75 413,-72 438.31,-47.79 533.19,-32.09 591.97,-24.46"/>
<polygon fill="black" stroke="black" points="592.67,-27.9 602.15,-23.17 591.79,-20.95 592.67,-27.9"/>
</g>
<!-- androidxsavedstatesavedstate&#45;&gt;androidxarchcorecorecommon -->
<g id="edge50" class="edge">
<title>androidxsavedstatesavedstate&#45;&gt;androidxarchcorecorecommon</title>
<path fill="none" stroke="black" d="M351.12,-146.5C325.59,-136.46 291.24,-122.95 262.81,-111.77"/>
<polygon fill="black" stroke="black" points="264.01,-108.48 253.42,-108.08 261.45,-114.99 264.01,-108.48"/>
</g>
<!-- androidxappcompatappcompatresources&#45;&gt;androidxcorecore -->
<g id="edge54" class="edge">
<title>androidxappcompatappcompatresources&#45;&gt;androidxcorecore</title>
<path fill="none" stroke="black" d="M947.55,-431.81C928.56,-398.87 882.52,-326.68 824,-288 785.52,-262.56 733.84,-248.45 699.3,-241.31"/>
<polygon fill="black" stroke="black" points="699.65,-237.81 689.16,-239.31 698.3,-244.68 699.65,-237.81"/>
</g>
<!-- androidxappcompatappcompatresources&#45;&gt;androidxannotationannotation -->
<g id="edge55" class="edge">
<title>androidxappcompatappcompatresources&#45;&gt;androidxannotationannotation</title>
<path fill="none" stroke="black" d="M1024.69,-447.73C1067,-443.26 1119.45,-430.4 1152,-396 1179.8,-366.62 1171,-347.45 1171,-307 1171,-307 1171,-307 1171,-161 1171,-103.14 1128.42,-96.48 1076,-72 1007.92,-40.21 786.29,-25.96 687.85,-21.08"/>
<polygon fill="black" stroke="black" points="687.75,-17.57 677.6,-20.58 687.42,-24.56 687.75,-17.57"/>
</g>
<!-- androidxvectordrawablevectordrawableanimated -->
<g id="node21" class="node">
<title>androidxvectordrawablevectordrawableanimated</title>
<polygon fill="none" stroke="black" points="1143.26,-396 984.74,-396 984.74,-360 1143.26,-360 1143.26,-396"/>
<text text-anchor="middle" x="1064" y="-374.85" font-family="Times New Roman" font-size="14.00">vectordrawable&#45;animated</text>
</g>
<!-- androidxappcompatappcompatresources&#45;&gt;androidxvectordrawablevectordrawableanimated -->
<g id="edge52" class="edge">
<title>androidxappcompatappcompatresources&#45;&gt;androidxvectordrawablevectordrawableanimated</title>
<path fill="none" stroke="black" d="M983.18,-431.88C997.04,-422.81 1014.24,-411.55 1029.21,-401.76"/>
<polygon fill="black" stroke="black" points="1031.27,-404.59 1037.72,-396.19 1027.44,-398.74 1031.27,-404.59"/>
</g>
<!-- androidxvectordrawablevectordrawable -->
<g id="node22" class="node">
<title>androidxvectordrawablevectordrawable</title>
<polygon fill="none" stroke="black" points="1049.28,-324 946.72,-324 946.72,-288 1049.28,-288 1049.28,-324"/>
<text text-anchor="middle" x="998" y="-302.85" font-family="Times New Roman" font-size="14.00">vectordrawable</text>
</g>
<!-- androidxappcompatappcompatresources&#45;&gt;androidxvectordrawablevectordrawable -->
<g id="edge53" class="edge">
<title>androidxappcompatappcompatresources&#45;&gt;androidxvectordrawablevectordrawable</title>
<path fill="none" stroke="black" d="M959.73,-431.7C962.8,-413.59 968.39,-384.44 976,-360 978.73,-351.25 982.33,-341.94 985.84,-333.61"/>
<polygon fill="black" stroke="black" points="989.08,-334.94 989.84,-324.37 982.65,-332.15 989.08,-334.94"/>
</g>
<!-- androidxvectordrawablevectordrawableanimated&#45;&gt;androidxcollectioncollection -->
<g id="edge57" class="edge">
<title>androidxvectordrawablevectordrawableanimated&#45;&gt;androidxcollectioncollection</title>
<path fill="none" stroke="black" d="M1065.1,-359.86C1065.75,-341.63 1065.32,-312.16 1058,-288 1037.77,-221.21 991.5,-152.6 964.86,-116.62"/>
<polygon fill="black" stroke="black" points="967.34,-114.09 958.54,-108.2 961.74,-118.3 967.34,-114.09"/>
</g>
<!-- androidxvectordrawablevectordrawableanimated&#45;&gt;androidxvectordrawablevectordrawable -->
<g id="edge56" class="edge">
<title>androidxvectordrawablevectordrawableanimated&#45;&gt;androidxvectordrawablevectordrawable</title>
<path fill="none" stroke="black" d="M1047.69,-359.7C1039.69,-351.22 1029.93,-340.86 1021.18,-331.58"/>
<polygon fill="black" stroke="black" points="1023.53,-328.98 1014.13,-324.1 1018.44,-333.78 1023.53,-328.98"/>
</g>
<!-- androidxinterpolatorinterpolator -->
<g id="node23" class="node">
<title>androidxinterpolatorinterpolator</title>
<polygon fill="none" stroke="black" points="1142.81,-252 1061.19,-252 1061.19,-216 1142.81,-216 1142.81,-252"/>
<text text-anchor="middle" x="1102" y="-230.85" font-family="Times New Roman" font-size="14.00">interpolator</text>
</g>
<!-- androidxvectordrawablevectordrawableanimated&#45;&gt;androidxinterpolatorinterpolator -->
<g id="edge58" class="edge">
<title>androidxvectordrawablevectordrawableanimated&#45;&gt;androidxinterpolatorinterpolator</title>
<path fill="none" stroke="black" d="M1074.6,-359.98C1080.38,-349.89 1087.13,-336.64 1091,-324 1097.18,-303.81 1099.9,-280.03 1101.09,-262.14"/>
<polygon fill="black" stroke="black" points="1104.59,-262.27 1101.64,-252.1 1097.6,-261.89 1104.59,-262.27"/>
</g>
<!-- androidxvectordrawablevectordrawable&#45;&gt;androidxcorecore -->
<g id="edge59" class="edge">
<title>androidxvectordrawablevectordrawable&#45;&gt;androidxcorecore</title>
<path fill="none" stroke="black" d="M946.63,-291.25C942.03,-290.11 937.43,-289.01 933,-288 849.92,-269.03 751.56,-250.85 699.19,-241.51"/>
<polygon fill="black" stroke="black" points="699.5,-238.01 689.04,-239.71 698.28,-244.9 699.5,-238.01"/>
</g>
<!-- androidxvectordrawablevectordrawable&#45;&gt;androidxannotationannotation -->
<g id="edge61" class="edge">
<title>androidxvectordrawablevectordrawable&#45;&gt;androidxannotationannotation</title>
<path fill="none" stroke="black" d="M1003.94,-287.7C1017.38,-245.01 1044.9,-133.67 990,-72 950.83,-28 774.05,-20.18 687.73,-19.02"/>
<polygon fill="black" stroke="black" points="687.7,-15.52 677.66,-18.91 687.62,-22.52 687.7,-15.52"/>
</g>
<!-- androidxvectordrawablevectordrawable&#45;&gt;androidxcollectioncollection -->
<g id="edge60" class="edge">
<title>androidxvectordrawablevectordrawable&#45;&gt;androidxcollectioncollection</title>
<path fill="none" stroke="black" d="M992.09,-287.93C988.62,-277.6 984.29,-264.12 981,-252 968.32,-205.31 956.7,-150.15 950.26,-118.01"/>
<polygon fill="black" stroke="black" points="953.66,-117.17 948.28,-108.04 946.8,-118.53 953.66,-117.17"/>
</g>
<!-- androidxinterpolatorinterpolator&#45;&gt;androidxannotationannotation -->
<g id="edge62" class="edge">
<title>androidxinterpolatorinterpolator&#45;&gt;androidxannotationannotation</title>
<path fill="none" stroke="black" d="M1101.7,-215.89C1100.12,-182.41 1091.47,-108.37 1047,-72 992.97,-27.81 783.29,-20.22 687.82,-19.09"/>
<polygon fill="black" stroke="black" points="687.61,-15.58 677.58,-18.98 687.55,-22.58 687.61,-15.58"/>
</g>
<!-- androidxdrawerlayoutdrawerlayout&#45;&gt;androidxcustomviewcustomview -->
<g id="edge63" class="edge">
<title>androidxdrawerlayoutdrawerlayout&#45;&gt;androidxcustomviewcustomview</title>
<path fill="none" stroke="black" d="M818.17,-359.7C810.98,-351.3 802.2,-341.07 794.31,-331.86"/>
<polygon fill="black" stroke="black" points="796.83,-329.42 787.66,-324.1 791.51,-333.97 796.83,-329.42"/>
</g>
<!-- androidxdrawerlayoutdrawerlayout&#45;&gt;androidxcorecore -->
<g id="edge64" class="edge">
<title>androidxdrawerlayoutdrawerlayout&#45;&gt;androidxcorecore</title>
<path fill="none" stroke="black" d="M787.92,-361.86C766.37,-353.11 741.17,-340.52 722,-324 701.62,-306.43 685.15,-280.37 674.65,-260.99"/>
<polygon fill="black" stroke="black" points="677.73,-259.31 669.99,-252.07 671.52,-262.56 677.73,-259.31"/>
</g>
<!-- androidxdrawerlayoutdrawerlayout&#45;&gt;androidxannotationannotation -->
<g id="edge65" class="edge">
<title>androidxdrawerlayoutdrawerlayout&#45;&gt;androidxannotationannotation</title>
<path fill="none" stroke="black" d="M842.95,-359.71C857.01,-333.58 881,-282.1 881,-235 881,-235 881,-235 881,-161 881,-72.13 757.85,-37.75 687.61,-25.38"/>
<polygon fill="black" stroke="black" points="688.1,-21.91 677.66,-23.7 686.94,-28.81 688.1,-21.91"/>
</g>
<!-- androidxcursoradaptercursoradapter&#45;&gt;androidxannotationannotation -->
<g id="edge66" class="edge">
<title>androidxcursoradaptercursoradapter&#45;&gt;androidxannotationannotation</title>
<path fill="none" stroke="black" d="M1279.36,-431.6C1274.1,-404.92 1265,-352.23 1265,-307 1265,-307 1265,-307 1265,-161 1265,-117.26 1258.84,-97.07 1223,-72 1179.57,-41.63 819.82,-25.56 688.09,-20.65"/>
<polygon fill="black" stroke="black" points="688.02,-17.15 677.9,-20.28 687.77,-24.14 688.02,-17.15"/>
</g>
<!-- AMSHookpluginActivity -->
<g id="node26" class="node">
<title>AMSHookpluginActivity</title>
<polygon fill="none" stroke="black" points="957.66,-612 860.34,-612 860.34,-576 957.66,-576 957.66,-612"/>
<text text-anchor="middle" x="909" y="-590.85" font-family="Times New Roman" font-size="14.00">pluginActivity</text>
</g>
<!-- AMSHookpluginActivity&#45;&gt;androidxappcompatappcompat -->
<g id="edge67" class="edge">
<title>AMSHookpluginActivity&#45;&gt;androidxappcompatappcompat</title>
<path fill="none" stroke="black" d="M909,-575.7C909,-567.98 909,-558.71 909,-550.11"/>
<polygon fill="black" stroke="black" points="912.5,-550.1 909,-540.1 905.5,-550.1 912.5,-550.1"/>
</g>
<!-- AMSHookpluginBroadcastReceiver -->
<g id="node27" class="node">
<title>AMSHookpluginBroadcastReceiver</title>
<polygon fill="none" stroke="black" points="1295.5,-612 1138.5,-612 1138.5,-576 1295.5,-576 1295.5,-612"/>
<text text-anchor="middle" x="1217" y="-590.85" font-family="Times New Roman" font-size="14.00">pluginBroadcastReceiver</text>
</g>
<!-- AMSHookpluginContentProvider -->
<g id="node28" class="node">
<title>AMSHookpluginContentProvider</title>
<polygon fill="none" stroke="black" points="1120.32,-612 975.68,-612 975.68,-576 1120.32,-576 1120.32,-612"/>
<text text-anchor="middle" x="1048" y="-590.85" font-family="Times New Roman" font-size="14.00">pluginContentProvider</text>
</g>
<!-- AMSHookpluginContentProvider&#45;&gt;androidxappcompatappcompat -->
<g id="edge68" class="edge">
<title>AMSHookpluginContentProvider&#45;&gt;androidxappcompatappcompat</title>
<path fill="none" stroke="black" d="M1014,-575.88C995.4,-566.51 972.17,-554.81 952.29,-544.8"/>
<polygon fill="black" stroke="black" points="953.64,-541.56 943.13,-540.19 950.49,-547.81 953.64,-541.56"/>
</g>
<!-- AMSHookpluginService -->
<g id="node29" class="node">
<title>AMSHookpluginService</title>
<polygon fill="none" stroke="black" points="1407.76,-612 1314.24,-612 1314.24,-576 1407.76,-576 1407.76,-612"/>
<text text-anchor="middle" x="1361" y="-590.85" font-family="Times New Roman" font-size="14.00">pluginService</text>
</g>
</g>
</svg>
